HIERARCHY
ROOT Hips
{
	OFFSET	0.00	0.00	0.00
	CHANNELS 6 Xposition Yposition Zposition Zrotation Xrotation Yrotation
	JOINT LeftUpLeg
	{
		OFFSET	 0.126116	-0.014019	-0.065224
		CHANNELS 3 Zrotation Xrotation Yrotation
		JOINT LeftLeg
		{
			OFFSET	 0.000000	 0.000000	 0.569914
			CHANNELS 3 Zrotation Xrotation Yrotation
			JOINT LeftFoot
			{
				OFFSET	 0.000000	 0.000000	 0.544423
				CHANNELS 3 Zrotation Xrotation Yrotation
				JOINT LeftToeBase
				{
					OFFSET	 0.000000	 0.000000	 0.207117
					CHANNELS 3 Zrotation Xrotation Yrotation
					End Site
					{
						OFFSET	 0.000000	 0.000000	 0.207117
					}
				}
			}
		}
	}
	JOINT RightUpLeg
	{
		OFFSET	-0.124023	-0.008373	-0.065224
		CHANNELS 3 Zrotation Xrotation Yrotation
		JOINT RightLeg
		{
			OFFSET	 0.000000	 0.000000	 0.570047
			CHANNELS 3 Zrotation Xrotation Yrotation
			JOINT RightFoot
			{
				OFFSET	 0.000000	 0.000000	 0.544354
				CHANNELS 3 Zrotation Xrotation Yrotation
				JOINT RightToeBase
				{
					OFFSET	 0.000000	 0.000000	 0.207540
					CHANNELS 3 Zrotation Xrotation Yrotation
					End Site
					{
						OFFSET	 0.000000	 0.000000	 0.207540
					}
				}
			}
		}
	}
	JOINT Spine
	{
		OFFSET	 0.000184	-0.007763	 0.117403
		CHANNELS 3 Zrotation Xrotation Yrotation
		JOINT Spine1
		{
			OFFSET	 0.000000	 0.000000	 0.137269
			CHANNELS 3 Zrotation Xrotation Yrotation
			JOINT Spine2
			{
				OFFSET	 0.000000	 0.000000	 0.156879
				CHANNELS 3 Zrotation Xrotation Yrotation
				JOINT LeftShoulder
				{
					OFFSET	 0.080501	-0.002496	 0.160144
					CHANNELS 3 Zrotation Xrotation Yrotation
					JOINT LeftArm
					{
						OFFSET	 0.000000	 0.000000	 0.164363
						CHANNELS 3 Zrotation Xrotation Yrotation
						JOINT LeftForeArm
						{
							OFFSET	 0.000000	 0.000000	 0.364576
							CHANNELS 3 Zrotation Xrotation Yrotation
							JOINT LeftHand
							{
								OFFSET	 0.000000	 0.000000	 0.360812
								CHANNELS 3 Zrotation Xrotation Yrotation
								JOINT LeftHandIndex1
								{
									OFFSET	 0.000000	 0.000000	 0.086006
									CHANNELS 3 Zrotation Xrotation Yrotation
									JOINT LeftHandIndex2
									{
										OFFSET	 0.000000	 0.000000	 0.047236
										CHANNELS 3 Zrotation Xrotation Yrotation
										JOINT LeftHandIndex3
										{
											OFFSET	-0.004284	-0.000551	 0.038166
											CHANNELS 3 Zrotation Xrotation Yrotation
											End Site
											{
												OFFSET	-0.004284	-0.000551	 0.038166
											}
										}
									}
								}
							}
						}
					}
				}
				JOINT Neck
				{
					OFFSET	 0.000000	 0.000000	 0.176489
					CHANNELS 3 Zrotation Xrotation Yrotation
					JOINT Head
					{
						OFFSET	 0.000000	-0.001747	 0.077940
						CHANNELS 3 Zrotation Xrotation Yrotation
						End Site
						{
							OFFSET	 0.000000	-0.001747	 0.077940
						}
					}
				}
				JOINT RightShoulder
				{
					OFFSET	-0.080363	 0.000306	 0.159706
					CHANNELS 3 Zrotation Xrotation Yrotation
					JOINT RightArm
					{
						OFFSET	 0.000000	 0.000000	 0.164196
						CHANNELS 3 Zrotation Xrotation Yrotation
						JOINT RightForeArm
						{
							OFFSET	 0.000000	 0.000000	 0.365611
							CHANNELS 3 Zrotation Xrotation Yrotation
							JOINT RightHand
							{
								OFFSET	 0.000000	 0.000000	 0.360648
								CHANNELS 3 Zrotation Xrotation Yrotation
								JOINT RightHandIndex1
								{
									OFFSET	 0.000000	 0.000000	 0.069977
									CHANNELS 3 Zrotation Xrotation Yrotation
									JOINT RightHandIndex2
									{
										OFFSET	 0.000000	 0.000000	 0.052305
										CHANNELS 3 Zrotation Xrotation Yrotation
										JOINT RightHandIndex3
										{
											OFFSET	 0.009002	-0.000782	 0.042196
											CHANNELS 3 Zrotation Xrotation Yrotation
											End Site
											{
												OFFSET	 0.009002	-0.000782	 0.042196
											}
										}
									}
								}
							}
						}
					}
				}
			}
		}
	}
}
MOTION
Frames:    11
Frame Time: 0.03333334
-0.057421	-2.223775	 1.197747	 4.044065	-1.811410	-3.418592	-6.619678	-14.168960	-169.971000	 0.262548	-39.918810	-0.046075	 48.266060	 80.469210	-51.654090	-2.371445	 31.268290	-0.062097	 5.204289	-28.535100	-175.139200	 10.463930	-54.429610	 9.163982	 14.729790	 70.861170	-10.771300	 2.357792	 33.172110	 0.107228	-0.385499	 8.970936	 1.370543	 0.540886	 2.855337	 1.783459	-4.933701	-2.622226	-2.331343	-93.756760	 58.856240	 175.788200	 23.445390	 44.371380	-25.869960	-0.595512	-2.106297	-17.144850	-1.573714	-25.365290	-6.379328	-4.869499	 19.239540	-2.786440	-3.891242	 21.348350	 2.212630	-4.808237	 5.545744	 0.146954	-0.129677	-5.010932	 0.156763	-7.085577	 2.145793	 2.523323	 89.836000	 61.577080	-179.871900	-20.833670	 52.695010	 10.249240	-1.199683	-2.866882	 15.031850	-4.631949	-11.535900	 0.794051	 6.305278	 26.074030	-0.579809	 1.716510	 46.030830	-6.841914	 0.334239	 25.112230	 3.666738
-0.058319	-2.239968	 1.197693	 5.488459	-0.954003	-3.402522	-7.936885	-14.377540	-170.109300	 1.151615	-39.755920	 0.510925	 46.518430	 80.336610	-50.568100	-2.368925	 31.693060	-0.071695	 1.871601	-30.566820	-174.804400	 11.923560	-52.389290	 10.107130	 46.293830	 80.745620	-44.389520	 2.358971	 33.000960	 0.103241	-1.382658	 8.491174	 1.130645	 0.594816	 2.131567	 2.040971	-5.161907	-2.549066	-2.375079	-94.047000	 59.017800	 175.149600	 24.467580	 43.077830	-26.697260	-1.763257	-1.842611	-18.213850	-1.525491	-25.751410	-8.690674	-4.866168	 19.326710	-2.792527	-3.878101	 21.516580	 2.199267	-4.806083	 5.571173	 0.145470	-0.051423	-5.095871	 0.213442	-7.044908	 2.068691	 2.222260	 89.738780	 61.698400	 179.896600	-19.892460	 53.386040	 8.739092	-1.802625	-2.958175	 14.668520	-4.917117	-10.658350	 0.427711	 6.283358	 24.052210	-0.544597	 1.984653	 43.886340	-7.081295	 0.697819	 23.518570	 3.482252
-0.058832	-2.263215	 1.197197	 6.389258	 0.165699	-3.708646	-8.697730	-14.267680	-169.971300	 1.548730	-39.227660	 0.756428	 46.939890	 80.540010	-51.298130	-2.366008	 32.166340	-0.082470	-0.000270	-33.215950	-174.049200	 13.156880	-49.249450	 10.629880	 99.893630	 79.808100	-100.534200	 2.360940	 32.707260	 0.096439	-1.877990	 7.635196	 1.108407	 0.635313	 1.853690	 2.388232	-5.359737	-2.612789	-2.505294	-94.335570	 58.960860	 174.542600	 24.587020	 41.407180	-27.054960	-2.625238	-1.750240	-20.303530	-1.138687	-26.625670	-8.816595	-4.849223	 19.738990	-2.815672	-3.854660	 21.815000	 2.175450	-4.793036	 5.724780	 0.136461	-0.008414	-5.170616	 0.303200	-7.092440	 2.008169	 2.115129	 89.582020	 61.890300	 179.518800	-18.870640	 54.160290	 7.051266	-3.154508	-3.240229	 14.297390	-5.840676	-9.764765	-0.513466	 6.243663	 21.554000	-0.609405	 2.228730	 41.767570	-7.296504	 1.232822	 21.090910	 3.226233
-0.059343	-2.299421	 1.195210	 6.731108	 0.774459	-4.238708	-8.961742	-12.680560	-169.516000	 1.798124	-38.264510	 0.895248	 46.450500	 80.398950	-51.040780	-2.352873	 34.090190	-0.127183	 1.741302	-35.254160	-172.304700	 12.674170	-44.256470	 9.462494	 127.026300	 70.546750	-129.236900	 2.347153	 34.628610	 0.141608	-2.253759	 6.933196	 1.407744	 0.735293	 2.546014	 2.581074	-5.432722	-2.977477	-2.591228	-94.505740	 58.870190	 174.194900	 23.265500	 39.464470	-27.351080	-3.575437	-1.619149	-23.215800	-1.431192	-27.328780	-8.152062	-4.828699	 20.330110	-2.872821	-3.812191	 22.349740	 2.132320	-4.758814	 6.126278	 0.112739	 0.047295	-5.317537	 0.348293	-7.068526	 1.920022	 1.953355	 89.413250	 62.024850	 179.108300	-17.080360	 55.032320	 4.363887	-5.318949	-3.821426	 14.283790	-7.045532	-9.207058	-2.708449	 6.183233	 18.150360	-0.713914	 2.647089	 37.716240	-7.658329	 1.960389	 17.635960	 2.909636
-0.061554	-2.339727	 1.191530	 7.111761	 0.736681	-4.292029	-9.557823	-10.292210	-169.525500	 2.320379	-37.585580	 1.200462	 38.430120	 78.954770	-43.304830	-2.309167	 38.988600	-0.248840	 2.784070	-36.032330	-171.222500	 12.067760	-38.223370	 8.018130	 112.795600	 71.429340	-115.759700	 2.337249	 35.851830	 0.171214	-3.022303	 7.007133	 1.405758	 0.842819	 3.050773	 2.700688	-5.437804	-3.358851	-2.691376	-94.530940	 59.083270	 174.106300	 21.173630	 38.240020	-27.988310	-3.671779	-1.719573	-25.056450	-2.311347	-28.823700	-8.971153	-4.863840	 20.559260	-3.144680	-3.774872	 22.813470	 2.094419	-4.708035	 6.717659	 0.077324	 0.149084	-5.447146	 0.308959	-6.882231	 1.976873	 1.639742	 89.356950	 61.787220	 178.981400	-15.284270	 55.488560	 0.910774	-6.851121	-4.530485	 15.208290	-7.571257	-9.694130	-4.460648	 6.176219	 15.020330	-0.543073	 2.954526	 34.354880	-7.917370	 2.587425	 14.524230	 2.668186
-0.067023	-2.390948	 1.185588	 7.496637	 0.306246	-3.327525	-10.016010	-6.790824	-170.729600	 1.936536	-37.235360	 0.958507	 25.502710	 74.602260	-29.595700	-2.148890	 49.448080	-0.565691	 4.248227	-35.700720	-171.157800	 7.028281	-30.973310	 4.025305	 60.764090	 75.791120	-59.579060	 2.340931	 35.410090	 0.160441	-3.992612	 7.038717	 0.488630	 0.975128	 4.381745	 2.804674	-5.480919	-3.808933	-2.931169	-94.450350	 59.379740	 174.229600	 18.895890	 36.905430	-29.675540	-3.968068	-1.632591	-25.776680	-3.225809	-29.672290	-9.434035	-4.894356	 20.721500	-3.373943	-3.753186	 23.080290	 2.072406	-4.632826	 7.584434	 0.024374	 0.264163	-5.475450	 0.239353	-6.620658	 2.159570	 1.820969	 89.353580	 61.408570	 178.987100	-13.875840	 55.580870	-2.175025	-8.162081	-5.169590	 15.936860	-8.265556	-10.491190	-5.584857	 6.276746	 11.876210	 0.060431	 3.137642	 32.179150	-8.068371	 3.142868	 11.673100	 2.480276
-0.074132	-2.451913	 1.175920	 9.167725	-0.813752	-2.118949	-9.858460	-1.744517	-172.675100	 0.065695	-36.671000	-0.171420	 13.320480	 61.464230	-14.325270	-1.703765	 62.441280	-1.191447	 6.132411	-36.540430	-170.437000	 6.984682	-26.889960	 3.518862	 10.345970	 63.214270	-6.954223	 2.338115	 35.748470	 0.168688	-5.586680	 7.416579	-0.576181	 0.748086	 6.557863	 2.572213	-5.726205	-4.430759	-3.128833	-94.344280	 59.114260	 174.500200	 17.106140	 34.811230	-31.675220	-4.288405	-1.572720	-27.206140	-2.989617	-28.056020	-9.072080	-4.871929	 21.045850	-3.351095	-3.715366	 23.541160	 2.034015	-4.545752	 8.574155	-0.037634	 0.387646	-5.380931	 0.277084	-6.478344	 2.641724	 2.168721	 89.144170	 61.249220	 178.500700	-12.719370	 55.456490	-4.219263	-8.145976	-5.217741	 16.092230	-8.074312	-11.420900	-4.387155	 6.353230	 9.319392	 0.432257	 3.346404	 29.526590	-8.237060	 3.522350	 9.679214	 2.366634
-0.085188	-2.529593	 1.161364	 10.404990	-1.489355	-0.528300	-3.733699	 4.502677	-177.687900	 1.791870	-35.148780	 0.828641	 4.875723	 37.391110	-0.356370	-1.284425	 68.443790	-1.690625	 4.418866	-40.492940	-171.805500	 6.609131	-26.739180	 3.329302	 4.980881	 47.671910	-1.617615	 2.365348	 32.021710	 0.080692	-6.615207	 7.507328	-1.468912	 0.215567	 8.401052	 1.461862	-5.996213	-4.926590	-2.954758	-94.116900	 59.842090	 174.878900	 16.055490	 33.661120	-33.983340	-3.078838	-2.355132	-28.852510	-1.996934	-26.254710	-9.859915	-4.774710	 21.401000	-2.887276	-3.633764	 24.516370	 1.951219	-4.475478	 9.362076	-0.088218	 0.357030	-5.366084	 0.181455	-6.519904	 3.143704	 2.237016	 88.991540	 60.324710	 178.198800	-11.713110	 54.525100	-7.162586	-6.481875	-5.207644	 17.748100	-6.166332	-13.003680	-2.266631	 6.395826	 8.839143	 0.607547	 3.386503	 28.995030	-8.268996	 3.676744	 8.858315	 2.323937
-0.094354	-2.614546	 1.150622	 8.411295	-2.250733	 0.689472	 4.675116	 12.315690	 176.969400	-0.688491	-29.245030	-0.508724	 7.825011	 27.666940	-1.553089	-2.375634	 30.524050	-0.045427	 4.897172	-39.639790	-174.834600	 5.164042	-24.584420	 2.471014	 4.673355	 43.446320	 0.410906	 2.374335	 30.484160	 0.045997	-5.706011	 8.111512	-2.269847	-0.369277	 8.027848	 0.983130	-5.711039	-4.573104	-2.976635	-94.026820	 59.675380	 175.100200	 14.822420	 33.326360	-33.682810	-1.999502	-3.044061	-29.579690	-1.550217	-26.024700	-8.976440	-4.713477	 22.157760	-2.755412	-3.559890	 25.377200	 1.876300	-4.399523	 10.202930	-0.143418	 0.239563	-5.393736	 0.157862	-6.651921	 3.142529	 2.406379	 89.163190	 60.289480	 178.591500	-11.927810	 54.387150	-8.144490	-5.268799	-4.544181	 16.895580	-4.441948	-14.726320	-0.686644	 6.402772	 10.786810	 0.625817	 3.228367	 31.049680	-8.142154	 3.486035	 9.871553	 2.376981
-0.103004	-2.713894	 1.142663	 6.450556	-3.057693	 1.276218	 7.969423	 18.536310	 174.009200	-2.912821	-27.401040	-1.504134	 10.668970	 36.167890	-5.764236	-2.381050	 29.476640	-0.022286	 5.346169	-36.358950	-178.615500	 4.484330	-25.557200	 2.266721	 4.258221	 47.413190	 2.981178	 2.374317	 30.486350	 0.046050	-5.168040	 8.764227	-2.460091	-1.419136	 6.241998	 0.088312	-5.300551	-3.551448	-2.388337	-93.913020	 59.489490	 175.373200	 14.522560	 33.947590	-31.300080	-0.909292	-3.848897	-30.759090	-1.786153	-26.159710	-8.097847	-4.617596	 23.450240	-2.565406	-3.480627	 26.278380	 1.795960	-4.274124	 11.566290	-0.235681	 0.102683	-5.279464	 0.040552	-6.746439	 3.031634	 2.268501	 89.449620	 60.168940	 179.246300	-13.220210	 54.349900	-7.721958	-3.390769	-3.587878	 15.469730	-2.757483	-17.058460	 0.133980	 6.378577	 13.761150	 0.492524	 2.988479	 33.961590	-7.945568	 3.086526	 11.966070	 2.498182
-0.114339	-2.835994	 1.140825	 4.842713	-3.696301	 1.232234	 2.443520	 17.914650	 176.628400	-1.676898	-38.465370	-1.262828	 10.167730	 55.526310	-7.488577	-2.376589	 30.348460	-0.041513	 5.771112	-36.809940	 178.897100	 3.395309	-36.934850	 2.498504	 5.879559	 57.784660	 3.555738	 2.374310	 30.488990	 0.046098	-3.822978	 9.266939	-2.231740	-2.055560	 3.696525	-0.412778	-4.984907	-2.158937	-1.767639	-93.747530	 59.821210	 175.689000	 15.687050	 36.134620	-28.823430	 1.631674	-5.062831	-29.191340	-1.396668	-23.720290	-5.993352	-4.579319	 24.249610	-2.585418	-3.401819	 27.151930	 1.716116	-4.152428	 12.860070	-0.326522	-0.083039	-5.070725	-0.061490	-6.933819	 2.843874	 2.100189	 89.587780	 59.754140	 179.565100	-15.751620	 54.178710	-4.882080	-0.676830	-2.292361	 12.746480	-1.356081	-19.415520	 0.921492	 6.376109	 16.890410	 0.437155	 2.737197	 36.767040	-7.734912	 2.548063	 14.723050	 2.682450
